<svg viewBox="0 0 228.34 447.48" xmlns="http://www.w3.org/2000/svg"><g data-name="Layer 2"><g data-name="big, ben, london, tower, clock, architecture, travel, landmark, britain"><path d="M21 313.45h162.85a5.46 5.46 0 0 0 5.47-5.46v-116.4a5.47 5.47 0 0 0-5.47-5.47h-42.21v-12.86a5.47 5.47 0 0 0-10.93 0v12.86h-22.82v-12.86a5.47 5.47 0 0 0-10.93 0v12.86H74.15v-12.86a5.47 5.47 0 0 0-10.94 0v12.86H21a5.47 5.47 0 0 0-5.46 5.47v36.64a5.47 5.47 0 1 0 10.93 0v-31.18h10.82v87.71a5.47 5.47 0 0 0 10.93 0v-87.71h108.41v87.71a5.47 5.47 0 0 0 10.93 0v-87.71h10.82v105.47H26.47v-52.73a5.47 5.47 0 1 0-10.93 0V308a5.46 5.46 0 0 0 5.46 5.45Z" fill="#564ffd" class="fill-000000"></path><path d="M68.39 228.14a5.47 5.47 0 0 0-7.25 2.68 45 45 0 0 0-4.14 19 45.43 45.43 0 1 0 45.43-45.43A45 45 0 0 0 83 208.72a5.46 5.46 0 1 0 4.68 9.87 34.16 34.16 0 0 1 14.75-3.3 34.48 34.48 0 1 1-31.36 20.1 5.47 5.47 0 0 0-2.68-7.25ZM34.63 176.8a5.47 5.47 0 0 0 5.47-5.46v-12.06h124.65v12.06a5.47 5.47 0 0 0 10.94 0v-17.53a5.47 5.47 0 0 0-5.47-5.46H34.63a5.47 5.47 0 0 0-5.46 5.46v17.53a5.47 5.47 0 0 0 5.46 5.46ZM46.86 140.37a5.47 5.47 0 0 0 5.47-5.47v-5.24h100.19v5.24a5.47 5.47 0 1 0 10.93 0v-10.71a5.45 5.45 0 0 0-5.46-5.46h-11.92V88.37c0-.21 0-.42-.07-.64a3.25 3.25 0 0 0-.06-.45 3.36 3.36 0 0 0-.14-.45 6 6 0 0 0-.2-.6s0 0 0-.07l-38.17-83a5.47 5.47 0 0 0-9.93 0L87 26a5.47 5.47 0 0 0 9.93 4.57l5.54-12L132.07 83H72.78l5.39-11.72a5.46 5.46 0 1 0-9.93-4.56l-8.95 19.44v.07a4.27 4.27 0 0 0-.21.6 3.88 3.88 0 0 0-.14.45c0 .14 0 .3-.06.45a4.76 4.76 0 0 0-.06.64s0 0 0 .07v30.29H46.86a5.46 5.46 0 0 0-5.46 5.46v10.71a5.47 5.47 0 0 0 5.46 5.47Zm22.86-46.46h65.41v24.82H69.72Z" fill="#564ffd" class="fill-000000"></path><path d="M79.28 55.78a5.47 5.47 0 0 0 7.25-2.68l.7-1.52A5.47 5.47 0 1 0 77.3 47l-.7 1.52a5.47 5.47 0 0 0 2.68 7.26ZM102.43 227.65a5.46 5.46 0 0 0-5.43 5.46v16.68a5.46 5.46 0 0 0 5.47 5.46h10.51a5.47 5.47 0 0 0 0-10.93h-5v-11.21a5.45 5.45 0 0 0-5.55-5.46ZM5.47 447.48h186.6a5.47 5.47 0 1 0 0-10.93h-16.38v-37.76a5.47 5.47 0 0 0-10.94 0v37.76h-23.11v-37.76a5.47 5.47 0 0 0-10.93 0v37.76h-22.82v-37.76a5.47 5.47 0 0 0-10.93 0v37.76H74.15v-37.76a5.47 5.47 0 0 0-10.94 0v37.76H40.1v-56.08h143.75a5.47 5.47 0 0 0 0-10.94h-8.16v-40.61a5.47 5.47 0 1 0-10.94 0v40.61h-23.11v-37.75a5.47 5.47 0 1 0-10.93 0v37.75h-22.82v-37.75a5.47 5.47 0 1 0-10.93 0v37.75H74.15v-37.75a5.47 5.47 0 1 0-10.94 0v37.75H40.1v-40.61a5.47 5.47 0 1 0-10.93 0v40.61H21a5.47 5.47 0 0 0 0 10.94h8.17v56.08H5.47a5.47 5.47 0 1 0 0 10.93ZM218.88 447.48h4a5.47 5.47 0 0 0 0-10.93h-4a5.47 5.47 0 1 0 0 10.93Z" fill="#564ffd" class="fill-000000"></path></g></g></svg>