<svg viewBox="0 0 24 24" xmlns="http://www.w3.org/2000/svg"><path d="m9.725 1.477-.096.377L9.12 3.85a8.652 8.652 0 0 0-.848.35L6.176 2.952 3.014 6.115 4.219 8.23c-.141.29-.264.588-.371.892l-2.371.604v4.47l2.36.645c.114.324.245.642.395.951l-1.214 2.047 3.164 3.16 2.095-1.195c.275.131.555.247.842.35l.606 2.37h4.47l.645-2.359c.315-.11.623-.238.924-.383l2.134 1.217 3.16-3.16-1.255-2.117c.136-.287.257-.58.361-.881l2.36-.645v-4.47l-2.372-.604a8.66 8.66 0 0 0-.336-.816l1.248-2.192-3.162-3.16-2.132 1.268a8.653 8.653 0 0 0-.93-.385l-.645-2.36zm.777 1h2.93l.58 2.12.261.083c.45.14.888.32 1.305.539l.246.13 1.92-1.14 2.074 2.072-1.123 1.971.123.242c.198.385.363.785.493 1.197l.084.266 2.128.545v2.93l-2.12.58-.083.263a7.667 7.667 0 0 1-.515 1.26l-.13.246 1.128 1.899-2.073 2.072-1.918-1.094-.244.127a7.665 7.665 0 0 1-1.295.535l-.261.082-.58 2.121h-2.93l-.545-2.127-.264-.084a7.669 7.669 0 0 1-1.222-.507l-.242-.125-1.881 1.072-2.073-2.072 1.088-1.832-.133-.248a7.682 7.682 0 0 1-.55-1.327l-.082-.261-2.121-.58v-2.93l2.127-.541.083-.266c.139-.438.316-.863.53-1.27l.129-.243-1.084-1.9 2.072-2.073 1.88 1.117.247-.129a7.668 7.668 0 0 1 1.232-.508l.268-.084z" style="line-height:normal;font-variant-ligatures:normal;font-variant-position:normal;font-variant-caps:normal;font-variant-numeric:normal;font-variant-alternates:normal;font-variant-east-asian:normal;font-feature-settings:normal;font-variation-settings:normal;text-indent:0;text-align:start;text-decoration-line:none;text-decoration-style:solid;text-decoration-color:#000;text-transform:none;text-orientation:mixed;white-space:normal;shape-padding:0;shape-margin:0;inline-size:0;isolation:auto;mix-blend-mode:normal;solid-color:#000;solid-opacity:1" color="#000000" font-style="normal" font-variant="normal" font-weight="400" font-stretch="normal" font-size="medium" font-family="sans-serif" text-decoration="none" letter-spacing="normal" word-spacing="normal" writing-mode="lr-tb" direction="ltr" dominant-baseline="auto" baseline-shift="baseline" text-anchor="start" clip-rule="nonzero" display="inline" overflow="visible" visibility="visible" opacity="1" color-interpolation="sRGB" color-interpolation-filters="linearRGB" vector-effect="none" fill="#fd962f" fill-opacity="1" fill-rule="nonzero" stroke="none" stroke-width="1px" stroke-linecap="butt" stroke-linejoin="miter" stroke-miterlimit="4" stroke-dasharray="none" stroke-dashoffset="0" stroke-opacity="1" color-rendering="auto" image-rendering="auto" shape-rendering="auto" text-rendering="auto" enable-background="accumulate" stop-color="#fd962f" stop-opacity="1" class="fill-000000 stop-color-000000"></path><path d="M12 5.756A6.252 6.252 0 0 0 5.756 12 6.252 6.252 0 0 0 12 18.244 6.252 6.252 0 0 0 18.244 12 6.252 6.252 0 0 0 12 5.756Zm0 1A5.237 5.237 0 0 1 17.244 12 5.237 5.237 0 0 1 12 17.244 5.237 5.237 0 0 1 6.756 12 5.237 5.237 0 0 1 12 6.756Z" style="line-height:normal;font-variant-ligatures:normal;font-variant-position:normal;font-variant-caps:normal;font-variant-numeric:normal;font-variant-alternates:normal;font-variant-east-asian:normal;font-feature-settings:normal;font-variation-settings:normal;text-indent:0;text-align:start;text-decoration-line:none;text-decoration-style:solid;text-decoration-color:#000;text-transform:none;text-orientation:mixed;white-space:normal;shape-padding:0;shape-margin:0;inline-size:0;isolation:auto;mix-blend-mode:normal;solid-color:#000;solid-opacity:1" color="#000000" font-style="normal" font-variant="normal" font-weight="400" font-stretch="normal" font-size="medium" font-family="sans-serif" text-decoration="none" letter-spacing="normal" word-spacing="normal" writing-mode="lr-tb" direction="ltr" dominant-baseline="auto" baseline-shift="baseline" text-anchor="start" clip-rule="nonzero" display="inline" overflow="visible" visibility="visible" opacity="1" color-interpolation="sRGB" color-interpolation-filters="linearRGB" vector-effect="none" fill="#fd962f" fill-opacity="1" fill-rule="nonzero" stroke="none" stroke-width="1" stroke-linecap="square" stroke-linejoin="miter" stroke-miterlimit="4" stroke-dasharray="none" stroke-dashoffset="0" stroke-opacity="1" paint-order="stroke fill markers" color-rendering="auto" image-rendering="auto" shape-rendering="auto" text-rendering="auto" enable-background="accumulate" stop-color="#fd962f" stop-opacity="1" class="fill-000000 stop-color-000000"></path><path d="M-68.525 48.002v1.174h-1.633v3.299h3.263v1.398h-3.263v.951h1.633v1.174h1.052v-1.174h1.631v-3.299h-3.263v-1.4h3.263v-.95h-1.63v-1.173z" style="line-height:normal;font-variant-ligatures:normal;font-variant-position:normal;font-variant-caps:normal;font-variant-numeric:normal;font-variant-alternates:normal;font-variant-east-asian:normal;font-feature-settings:normal;font-variation-settings:normal;text-indent:0;text-align:start;text-decoration-line:none;text-decoration-style:solid;text-decoration-color:#000;text-transform:none;text-orientation:mixed;white-space:normal;shape-padding:0;shape-margin:0;inline-size:0;isolation:auto;mix-blend-mode:normal;solid-color:#000;solid-opacity:1" transform="translate(80 -40)" color="#000000" font-style="normal" font-variant="normal" font-weight="400" font-stretch="normal" font-size="medium" font-family="sans-serif" text-decoration="none" letter-spacing="normal" word-spacing="normal" writing-mode="lr-tb" direction="ltr" dominant-baseline="auto" baseline-shift="baseline" text-anchor="start" clip-rule="nonzero" display="inline" overflow="visible" visibility="visible" color-interpolation="sRGB" color-interpolation-filters="linearRGB" vector-effect="none" fill="#fd962f" fill-opacity="1" fill-rule="nonzero" stroke="none" stroke-width=".999995px" stroke-linecap="square" stroke-linejoin="miter" stroke-miterlimit="4" stroke-dasharray="none" stroke-dashoffset="0" stroke-opacity="1" color-rendering="auto" image-rendering="auto" shape-rendering="auto" text-rendering="auto" enable-background="accumulate" stop-color="#fd962f" class="fill-000000 stop-color-000000"></path></svg>