<svg id="Icons" version="1.1" viewBox="0 0 32 32" xml:space="preserve" xmlns="http://www.w3.org/2000/svg" enable-background="new 0 0 32 32"><path d="m12 13-2-9h0c3.8-1.9 8.2-1.9 12 0h0l-2 9" fill="none" stroke="#23bd31" stroke-width="2" stroke-linecap="round" stroke-linejoin="round" stroke-miterlimit="10" class="stroke-000000"></path><path d="M21.7 5.6C24.9 7.5 27 11 27 15v2l2 2H3l2-2v-2c0-4 2.1-7.5 5.3-9.4M7.9 19.1c-.1.6-.2 1.3-.2 1.9 0 .7.1 1.3.2 1.9 1-.1 2 .3 2.5 1.3.5.9.4 2-.2 2.8.9.9 2.1 1.6 3.4 2 .4-.9 1.3-1.6 2.4-1.6s2 .7 2.4 1.6c1.3-.4 2.4-1.1 3.4-2-.6-.8-.7-1.9-.2-2.8.5-.9 1.6-1.4 2.5-1.3.1-.6.2-1.3.2-1.9 0-.7-.1-1.3-.2-1.9" fill="none" stroke="#23bd31" stroke-width="2" stroke-linecap="round" stroke-linejoin="round" stroke-miterlimit="10" class="stroke-000000"></path><path d="M13.8 19c-.5.5-.8 1.2-.8 2 0 1.7 1.3 3 3 3s3-1.3 3-3c0-.8-.3-1.5-.8-2" fill="none" stroke="#23bd31" stroke-width="2" stroke-linecap="round" stroke-linejoin="round" stroke-miterlimit="10" class="stroke-000000"></path></svg>