<svg viewBox="0 0 64 64" xml:space="preserve" xmlns="http://www.w3.org/2000/svg"><g fill="#e34444" class="fill-241f20"><path d="M1.649 61.935a.624.624 0 0 1-.623-.622V15.377c0-.343.279-.622.623-.622H15.88V5.067c0-.041-.014-.951.579-1.723.672-.876 1.373-1.217 2.585-1.256.306-.01 1.811-.022 7.243-.022 7.529 0 18.136.023 18.136.023l.103-.005c.014-.001.104-.008.241-.008.437 0 1.527.07 2.216.721 1.014.958 1.053 1.514 1.107 2.283.021.278.048 1.769.007 8.672l-.006 1.006h14.26c.343 0 .621.279.621.622v45.935a.622.622 0 0 1-.621.622H1.649zm22.935-10.193a2.625 2.625 0 0 0 2.622 2.622h9.586a2.624 2.624 0 0 0 2.621-2.622v-5.701h5.699a2.626 2.626 0 0 0 2.623-2.622v-9.603a2.626 2.626 0 0 0-2.623-2.623h-5.699v-5.682a2.625 2.625 0 0 0-2.621-2.622h-9.586a2.625 2.625 0 0 0-2.622 2.622v5.682h-5.699a2.626 2.626 0 0 0-2.623 2.623v9.603a2.625 2.625 0 0 0 2.623 2.622h5.699v5.701zM20.768 4.93c-1.208 0-2.021.768-2.021 1.912v7.915h26.476V6.968c.005-.111.002-.87-.556-1.446-.25-.259-.7-.568-1.423-.568H21.14a2.797 2.797 0 0 0-.372-.024z"></path><path d="M26.288 3.065c7.527 0 18.133.023 18.134.023l.104-.002.082-.006c.022-.002.079-.005.16-.005.51 0 1.18.118 1.528.447.731.691.749.946.798 1.634.015.217.046 1.488.004 8.588l-.012 2.012h14.887v45.179H2.027V15.756h14.854V5.026l-.001-.041c0-.005.027-.581.374-1.033.43-.561.813-.833 1.826-.866.297-.009 1.79-.021 7.208-.021m-8.541 12.691h28.476V6.985c.005-.359-.061-1.356-.836-2.159-.544-.563-1.305-.873-2.143-.873H21.2a3.963 3.963 0 0 0-.432-.023c-1.75 0-3.021 1.225-3.021 2.912v8.914m5.837 14.438h-4.699a3.627 3.627 0 0 0-3.623 3.623v9.603a3.627 3.627 0 0 0 3.623 3.622h4.699v4.701a3.626 3.626 0 0 0 3.622 3.622h9.586a3.625 3.625 0 0 0 3.621-3.622v-4.701h4.699a3.627 3.627 0 0 0 3.623-3.622v-9.603a3.627 3.627 0 0 0-3.623-3.623h-4.699v-4.682a3.625 3.625 0 0 0-3.621-3.622h-9.586a3.626 3.626 0 0 0-3.622 3.622v4.682m2.704-29.129c-3.766 0-6.761.006-7.276.023-1.546.05-2.509.557-3.346 1.647-.836 1.09-.786 2.332-.786 2.332v8.689H1.649c-.896 0-1.623.725-1.623 1.622v45.935c0 .896.727 1.622 1.623 1.622h60.702c.895 0 1.621-.726 1.621-1.622V15.377c0-.896-.727-1.622-1.621-1.622H49.098c.016-2.624.043-8.035-.01-8.748-.066-.946-.168-1.758-1.418-2.94-.934-.881-2.278-.994-2.902-.994-.213 0-.342.013-.342.013s-10.609-.021-18.138-.021zm-6.541 12.691V6.841c0-.79.632-.912 1.021-.912.173 0 .297.024.297.024h22.179c1.013 0 .979 1.014.979 1.014v6.788H19.747v.001zm-.861 31.285a1.626 1.626 0 0 1-1.623-1.622v-9.603c0-.892.73-1.623 1.623-1.623h6.699v-6.682c0-.893.714-1.622 1.622-1.622h9.586c.908 0 1.621.729 1.621 1.622v6.682h6.699c.893 0 1.623.73 1.623 1.623v9.603c0 .894-.73 1.622-1.623 1.622h-6.699v6.701c0 .89-.713 1.622-1.621 1.622h-9.586a1.618 1.618 0 0 1-1.622-1.622v-6.701h-6.699z"></path></g></svg>